<svg width="1200" height="438" viewBox="0 0 1200 438" xmlns="http://www.w3.org/2000/svg">
  <defs>
    <linearGradient id="brand" x1="0%" y1="0%" x2="100%" y2="100%">
      <stop offset="0%" stop-color="#3B82F6"/>
      <stop offset="100%" stop-color="#2563EB"/>
    </linearGradient>
    <linearGradient id="iconbg" x1="0%" y1="0%" x2="100%" y2="100%">
      <stop offset="0%" stop-color="#2563EB" stop-opacity="0.25"/>
      <stop offset="100%" stop-color="#3B82F6" stop-opacity="0.05"/>
    </linearGradient>
  </defs>
  <rect width="1200" height="438" fill="#0B1220"/>

  <!-- helper card macro replicated manually -->
  <!-- Row 1 -->
  <g transform="translate(20,20)">
    <rect width="224" height="190" rx="16" fill="#111A2E" stroke="#1E293B" stroke-width="1.5"/>
    <rect width="224" height="3" rx="1.5" fill="url(#brand)"/>
    <circle cx="40" cy="46" r="24" fill="url(#iconbg)"/>
    <path d="M40 32 L58 40 L40 48 L22 40 Z" fill="none" stroke="url(#brand)" stroke-width="2.4" stroke-linejoin="round"/>
    <path d="M30 44 V54 M50 44 V54" stroke="#3B82F6" stroke-width="2.4" stroke-linecap="round"/>
    <text x="24" y="92" font-family="Helvetica, Arial, sans-serif" font-size="15" font-weight="700" fill="#F1F5F9">Student</text>
    <text x="24" y="111" font-family="Helvetica, Arial, sans-serif" font-size="15" font-weight="700" fill="#F1F5F9">Management</text>
    <text x="24" y="138" font-family="Helvetica, Arial, sans-serif" font-size="11.5" fill="#94A3B8">
      <tspan x="24" dy="0">Profiles, records and</tspan>
      <tspan x="24" dy="15">academic history</tspan>
    </text>
  </g>

  <g transform="translate(258,20)">
    <rect width="224" height="190" rx="16" fill="#111A2E" stroke="#1E293B" stroke-width="1.5"/>
    <rect width="224" height="3" rx="1.5" fill="url(#brand)"/>
    <circle cx="40" cy="46" r="24" fill="url(#iconbg)"/>
    <rect x="26" y="36" width="28" height="22" rx="3" fill="none" stroke="url(#brand)" stroke-width="2.4"/>
    <path d="M33 36 V30 a7 7 0 0 1 14 0 V36" fill="none" stroke="#3B82F6" stroke-width="2.4"/>
    <text x="24" y="92" font-family="Helvetica, Arial, sans-serif" font-size="15" font-weight="700" fill="#F1F5F9">Faculty</text>
    <text x="24" y="111" font-family="Helvetica, Arial, sans-serif" font-size="15" font-weight="700" fill="#F1F5F9">Portal</text>
    <text x="24" y="138" font-family="Helvetica, Arial, sans-serif" font-size="11.5" fill="#94A3B8">
      <tspan x="24" dy="0">Teaching tools and</tspan>
      <tspan x="24" dy="15">staff workflows</tspan>
    </text>
  </g>

  <g transform="translate(496,20)">
    <rect width="224" height="190" rx="16" fill="#111A2E" stroke="#1E293B" stroke-width="1.5"/>
    <rect width="224" height="3" rx="1.5" fill="url(#brand)"/>
    <circle cx="40" cy="46" r="24" fill="url(#iconbg)"/>
    <rect x="26" y="32" width="28" height="28" rx="4" fill="none" stroke="url(#brand)" stroke-width="2.4"/>
    <line x1="26" y1="40" x2="54" y2="40" stroke="url(#brand)" stroke-width="2.4"/>
    <path d="M33 50 L37 54 L47 44" fill="none" stroke="#3B82F6" stroke-width="2.4" stroke-linecap="round" stroke-linejoin="round"/>
    <text x="24" y="92" font-family="Helvetica, Arial, sans-serif" font-size="15" font-weight="700" fill="#F1F5F9">Attendance</text>
    <text x="24" y="111" font-family="Helvetica, Arial, sans-serif" font-size="15" font-weight="700" fill="#F1F5F9">System</text>
    <text x="24" y="138" font-family="Helvetica, Arial, sans-serif" font-size="11.5" fill="#94A3B8">
      <tspan x="24" dy="0">Real-time tracking and</tspan>
      <tspan x="24" dy="15">automated reports</tspan>
    </text>
  </g>

  <g transform="translate(734,20)">
    <rect width="224" height="190" rx="16" fill="#111A2E" stroke="#1E293B" stroke-width="1.5"/>
    <rect width="224" height="3" rx="1.5" fill="url(#brand)"/>
    <circle cx="40" cy="46" r="24" fill="url(#iconbg)"/>
    <path d="M40 30 C30 30 24 38 24 47 C24 54 28 58 28 58 L24 64 L34 60 C36 61 38 61 40 61 C50 61 56 53 56 47 C56 38 50 30 40 30 Z"
          fill="none" stroke="url(#brand)" stroke-width="2.4" stroke-linejoin="round"/>
    <circle cx="40" cy="47" r="2.4" fill="#3B82F6"/>
    <text x="24" y="92" font-family="Helvetica, Arial, sans-serif" font-size="15" font-weight="700" fill="#F1F5F9">Parent</text>
    <text x="24" y="111" font-family="Helvetica, Arial, sans-serif" font-size="15" font-weight="700" fill="#F1F5F9">Portal</text>
    <text x="24" y="138" font-family="Helvetica, Arial, sans-serif" font-size="11.5" fill="#94A3B8">
      <tspan x="24" dy="0">Visibility into student</tspan>
      <tspan x="24" dy="15">progress and updates</tspan>
    </text>
  </g>

  <g transform="translate(972,20)">
    <rect width="224" height="190" rx="16" fill="#111A2E" stroke="#1E293B" stroke-width="1.5"/>
    <rect width="224" height="3" rx="1.5" fill="url(#brand)"/>
    <circle cx="40" cy="46" r="24" fill="url(#iconbg)"/>
    <path d="M26 36 h28 a4 4 0 0 1 4 4 v14 a4 4 0 0 1 -4 4 h-16 l-8 8 v-8 h-4 a4 4 0 0 1 -4 -4 v-14 a4 4 0 0 1 4 -4 Z"
          fill="none" stroke="url(#brand)" stroke-width="2.4" stroke-linejoin="round"/>
    <text x="24" y="92" font-family="Helvetica, Arial, sans-serif" font-size="15" font-weight="700" fill="#F1F5F9">Communication</text>
    <text x="24" y="111" font-family="Helvetica, Arial, sans-serif" font-size="15" font-weight="700" fill="#F1F5F9">Hub</text>
    <text x="24" y="138" font-family="Helvetica, Arial, sans-serif" font-size="11.5" fill="#94A3B8">
      <tspan x="24" dy="0">Messaging across the</tspan>
      <tspan x="24" dy="15">entire campus</tspan>
    </text>
  </g>

  <!-- Row 2 -->
  <g transform="translate(20,224)">
    <rect width="224" height="190" rx="16" fill="#111A2E" stroke="#1E293B" stroke-width="1.5"/>
    <rect width="224" height="3" rx="1.5" fill="url(#brand)"/>
    <circle cx="40" cy="46" r="24" fill="url(#iconbg)"/>
    <path d="M28 30 a4 4 0 0 1 4 -4 h16 a4 4 0 0 1 4 4 v32 l-12 -8 l-12 8 Z"
          fill="none" stroke="url(#brand)" stroke-width="2.4" stroke-linejoin="round"/>
    <circle cx="40" cy="34" r="2.2" fill="#3B82F6"/>
    <text x="24" y="92" font-family="Helvetica, Arial, sans-serif" font-size="15" font-weight="700" fill="#F1F5F9">Notice</text>
    <text x="24" y="111" font-family="Helvetica, Arial, sans-serif" font-size="15" font-weight="700" fill="#F1F5F9">Board</text>
    <text x="24" y="138" font-family="Helvetica, Arial, sans-serif" font-size="11.5" fill="#94A3B8">
      <tspan x="24" dy="0">Centralized campus</tspan>
      <tspan x="24" dy="15">announcements</tspan>
    </text>
  </g>

  <g transform="translate(258,224)">
    <rect width="224" height="190" rx="16" fill="#111A2E" stroke="#1E293B" stroke-width="1.5"/>
    <rect width="224" height="3" rx="1.5" fill="url(#brand)"/>
    <circle cx="40" cy="46" r="24" fill="url(#iconbg)"/>
    <path d="M26 34 h10 l4 5 h14 a3 3 0 0 1 3 3 v14 a3 3 0 0 1 -3 3 h-25 a3 3 0 0 1 -3 -3 v-19 a3 3 0 0 1 3 -3 Z"
          fill="none" stroke="url(#brand)" stroke-width="2.4" stroke-linejoin="round"/>
    <text x="24" y="92" font-family="Helvetica, Arial, sans-serif" font-size="15" font-weight="700" fill="#F1F5F9">Document</text>
    <text x="24" y="111" font-family="Helvetica, Arial, sans-serif" font-size="15" font-weight="700" fill="#F1F5F9">Center</text>
    <text x="24" y="138" font-family="Helvetica, Arial, sans-serif" font-size="11.5" fill="#94A3B8">
      <tspan x="24" dy="0">Secure storage for all</tspan>
      <tspan x="24" dy="15">institutional records</tspan>
    </text>
  </g>

  <g transform="translate(496,224)">
    <rect width="224" height="190" rx="16" fill="#111A2E" stroke="#1E293B" stroke-width="1.5"/>
    <rect width="224" height="3" rx="1.5" fill="url(#brand)"/>
    <circle cx="40" cy="46" r="24" fill="url(#iconbg)"/>
    <rect x="26" y="50" width="6" height="10" fill="url(#brand)"/>
    <rect x="36" y="42" width="6" height="18" fill="url(#brand)"/>
    <rect x="46" y="34" width="6" height="26" fill="#3B82F6"/>
    <text x="24" y="92" font-family="Helvetica, Arial, sans-serif" font-size="15" font-weight="700" fill="#F1F5F9">Analytics</text>
    <text x="24" y="138" font-family="Helvetica, Arial, sans-serif" font-size="11.5" fill="#94A3B8">
      <tspan x="24" dy="0">Insights into academic</tspan>
      <tspan x="24" dy="15">and operational data</tspan>
    </text>
  </g>

  <g transform="translate(734,224)">
    <rect width="224" height="190" rx="16" fill="#111A2E" stroke="#1E293B" stroke-width="1.5"/>
    <rect width="224" height="3" rx="1.5" fill="url(#brand)"/>
    <circle cx="40" cy="46" r="24" fill="url(#iconbg)"/>
    <path d="M40 28 L56 35 V47 C56 58 49 65 40 69 C31 65 24 58 24 47 V35 Z"
          fill="none" stroke="url(#brand)" stroke-width="2.4" stroke-linejoin="round"/>
    <path d="M33 47 L39 53 L48 41" fill="none" stroke="#3B82F6" stroke-width="2.4" stroke-linecap="round" stroke-linejoin="round"/>
    <text x="24" y="92" font-family="Helvetica, Arial, sans-serif" font-size="15" font-weight="700" fill="#F1F5F9">Security</text>
    <text x="24" y="138" font-family="Helvetica, Arial, sans-serif" font-size="11.5" fill="#94A3B8">
      <tspan x="24" dy="0">Role-based access and</tspan>
      <tspan x="24" dy="15">data protection</tspan>
    </text>
  </g>

  <g transform="translate(972,224)">
    <rect width="224" height="190" rx="16" fill="#111A2E" stroke="#1E293B" stroke-width="1.5"/>
    <rect width="224" height="3" rx="1.5" fill="url(#brand)"/>
    <circle cx="40" cy="46" r="24" fill="url(#iconbg)"/>
    <rect x="24" y="32" width="32" height="9" rx="2.5" fill="none" stroke="url(#brand)" stroke-width="2.2"/>
    <rect x="24" y="44" width="32" height="9" rx="2.5" fill="none" stroke="url(#brand)" stroke-width="2.2"/>
    <rect x="24" y="56" width="32" height="9" rx="2.5" fill="none" stroke="#3B82F6" stroke-width="2.2"/>
    <text x="24" y="92" font-family="Helvetica, Arial, sans-serif" font-size="15" font-weight="700" fill="#F1F5F9">Cloud</text>
    <text x="24" y="111" font-family="Helvetica, Arial, sans-serif" font-size="15" font-weight="700" fill="#F1F5F9">Infrastructure</text>
    <text x="24" y="138" font-family="Helvetica, Arial, sans-serif" font-size="11.5" fill="#94A3B8">
      <tspan x="24" dy="0">Scalable, managed</tspan>
      <tspan x="24" dy="15">backend services</tspan>
    </text>
  </g>
</svg>
